Coordinates
version=1
nRows=25
nColumns=33
inDegrees=yes

Units are S.I. units (second, meters, Newtons, ...)
Angles are in degrees.

endheader
time	ground_thorax_rot_x	ground_thorax_rot_y	ground_thorax_rot_z	ground_thorax_tx	ground_thorax_ty	ground_thorax_tz	clav_prot_r	clav_elev_r	scapula_abduction_r	scapula_elevation_r	scapula_upward_rot_r	scapula_winging_r	shoulder_elv_r	plane_of_elev_r	axial_rot_r	elbow_flexion_r	pro_sup_r	wrist_flex_r	wrist_dev_r	clav_prot_l	clav_elev_l	scapula_abduction_l	scapula_elevation_l	scapula_upward_rot_l	scapula_winging_l	shoulder_elv_l	plane_of_elev_l	axial_rot_l	elbow_flexion_l	pro_sup_l	wrist_flex_l	wrist_dev_l	
11.2600	39.942178	10.320833	11.926819	-249.775460	853.331908	7.722854	12.536280	38.610601	37.207490	45.000000	-35.845042	2068.775046	-831.505755	146.729017	-126.200293	1100.144160	101.137896	11.803888	2.295310	8.355460	-45.000000	-36.230804	45.000000	-45.000000	-2058.220579	267.841980	140.185028	144.311718	2530.843609	14.084275	3.164459	-20.139461	
11.2700	39.909754	10.373336	12.046609	-249.864825	853.145236	7.701922	12.498513	38.515046	37.197206	45.000000	-36.117699	2068.813264	-831.462878	146.705027	-126.385955	1100.144804	100.955920	11.953607	2.255946	8.342901	-45.000000	-36.180224	45.000000	-45.000000	-2058.215212	267.850666	140.228324	144.087863	2530.870987	14.182670	3.144389	-19.952989	
11.2800	39.877725	10.424808	12.180883	-249.927137	852.950779	7.681756	12.421049	38.391535	37.210354	45.000000	-36.370594	2068.836340	-831.425187	146.679341	-126.550932	1100.151365	100.784829	12.184096	2.209443	8.330730	-45.000000	-36.108461	45.000000	-45.000000	-2058.238321	267.876648	140.291963	143.852821	2530.925213	14.294467	3.189531	-19.688381	
11.2900	39.842306	10.460440	12.288946	-249.932264	852.738229	7.662007	12.400666	38.318690	37.210098	45.000000	-36.553616	2068.864208	-831.409270	146.660725	-126.655388	1100.154399	100.616268	12.306928	2.174279	8.329351	-45.000000	-36.074100	45.000000	-45.000000	-2058.249717	267.880789	140.325380	143.723278	2530.944449	14.402063	3.177946	-19.555679	
11.3000	39.803900	10.486115	12.383681	-249.876193	852.507475	7.644140	12.402070	38.279318	37.206269	45.000000	-36.683369	2068.893209	-831.406975	146.647235	-126.715826	1100.158662	100.455176	12.379866	2.141632	8.331043	-45.000000	-36.061612	45.000000	-45.000000	-2058.258601	267.875445	140.341435	143.657875	2530.950764	14.513000	3.144539	-19.479853	
11.3100	39.759990	10.508306	12.476888	-249.751807	852.257477	7.629641	12.414369	38.244021	37.211100	45.000000	-36.766840	2068.920908	-831.425540	146.646713	-126.732644	1100.158210	100.305584	12.443032	2.113251	8.341120	-45.000000	-36.050146	45.000000	-45.000000	-2058.284440	267.871497	140.354722	143.651533	2530.934818	14.630908	3.111415	-19.436728	
11.3200	39.714509	10.526764	12.557949	-249.559685	851.989913	7.620400	12.435376	38.240535	37.211330	45.000000	-36.814619	2068.949005	-831.448717	146.649531	-126.728708	1100.162083	100.166229	12.473738	2.082847	8.348229	-45.000000	-36.055073	45.000000	-45.000000	-2058.306625	267.861818	140.348077	143.685191	2530.916085	14.752137	3.062960	-19.420159	
11.3300	39.670584	10.545044	12.637849	-249.304653	851.708265	7.618256	12.446707	38.215997	37.225931	45.000000	-36.841786	2068.968651	-831.474491	146.659184	-126.709224	1100.170263	100.038737	12.536863	2.050551	8.358497	-45.000000	-36.048324	45.000000	-45.000000	-2058.352404	267.860490	140.348679	143.739109	2530.908121	14.879882	3.033721	-19.392708	
11.3400	39.631531	10.560762	12.704561	-248.992091	851.416284	7.624566	12.461584	38.223709	37.235476	45.000000	-36.850013	2068.987327	-831.489077	146.667320	-126.690237	1100.182953	99.918479	12.572800	2.014580	8.362177	-45.000000	-36.056132	45.000000	-45.000000	-2058.387246	267.850065	140.328186	143.815232	2530.914744	15.006400	2.990691	-19.380312	
11.3500	39.595660	10.576773	12.772944	-248.628036	851.118444	7.640014	12.471606	38.198426	37.258334	45.000000	-36.841990	2068.997277	-831.503506	146.679331	-126.663870	1100.192817	99.807541	12.636221	1.980344	8.370274	-45.000000	-36.050466	45.000000	-45.000000	-2058.446413	267.845177	140.321217	143.911128	2530.930352	15.133306	2.962810	-19.364707	
11.3600	39.564314	10.582381	12.825919	-248.218115	850.818959	7.664429	12.483139	38.207045	37.273891	45.000000	-36.807531	2069.002345	-831.508173	146.681102	-126.645383	1100.208858	99.701652	12.667195	1.943337	8.370416	-45.000000	-36.060701	45.000000	-45.000000	-2058.489486	267.830421	140.293253	144.023997	2530.963101	15.255820	2.926269	-19.361116	
11.3700	39.532913	10.583425	12.880042	-247.768120	850.522224	7.696663	12.491557	38.193099	37.297193	45.000000	-36.758947	2069.003695	-831.511762	146.681751	-126.619294	1100.224148	99.603503	12.714084	1.907773	8.374550	-45.000000	-36.062213	45.000000	-45.000000	-2058.548222	267.820112	140.277995	144.155551	2531.000796	15.374728	2.901031	-19.356948	
11.3800	39.500055	10.578296	12.924470	-247.282952	850.231884	7.734635	12.498257	38.219019	37.309783	45.000000	-36.687899	2069.007018	-831.516652	146.674269	-126.605821	1100.234717	99.514838	12.725535	1.873139	8.375153	-45.000000	-36.078303	45.000000	-45.000000	-2058.587677	267.802608	140.239520	144.298200	2531.029681	15.486117	2.874688	-19.355301	
11.3900	39.462264	10.578302	12.974563	-246.767284	849.950986	7.775423	12.501237	38.223338	37.327972	45.000000	-36.614919	2069.015965	-831.525871	146.673860	-126.584715	1100.238437	99.441841	12.752621	1.841037	8.381676	-45.000000	-36.085434	45.000000	-45.000000	-2058.646057	267.794512	140.214655	144.459296	2531.041236	15.585594	2.857017	-19.348798	
11.4000	39.425784	10.572026	13.000349	-246.224291	849.680979	7.815603	12.503846	38.261328	37.325815	45.000000	-36.512251	2069.019133	-831.545295	146.656912	-126.587687	1100.240654	99.386770	12.739026	1.811741	8.385788	-45.000000	-36.115811	45.000000	-44.999999	-2058.686859	267.783058	140.159117	144.618850	2531.044045	15.670063	2.846064	-19.345952	
11.4100	39.390407	10.567665	13.022835	-245.656278	849.422327	7.851590	12.497395	38.279342	37.322746	45.000000	-36.404170	2069.029825	-831.559052	146.643681	-126.584094	1100.248867	99.352174	12.743442	1.781237	8.395417	-45.000000	-36.147551	45.000000	-44.999999	-2058.743168	267.779266	140.117587	144.794377	2531.047694	15.732834	2.842125	-19.343784	
11.4200	39.358607	10.557320	13.034337	-245.063709	849.174151	7.880120	12.487126	38.320999	37.313504	45.000000	-36.276489	2069.042817	-831.577142	146.625045	-126.596506	1100.257327	99.336885	12.728496	1.752263	8.407263	-45.000000	-36.188027	45.000000	-44.999998	-2058.785230	267.776366	140.058416	144.975221	2531.046660	15.770717	2.845116	-19.344939	
11.4300	39.330925	10.549610	13.057277	-244.445347	848.934725	7.898585	12.468902	38.335284	37.318362	45.000000	-36.152085	2069.065818	-831.581655	146.620697	-126.596695	1100.275213	99.336733	12.751042	1.719560	8.422436	-45.000000	-36.213287	45.000000	-44.999996	-2058.846151	267.783835	140.024922	145.182214	2531.053025	15.776457	2.850394	-19.347972	
11.4400	39.309990	10.538852	13.076555	-243.797431	848.701398	7.905395	12.450302	38.366384	37.321676	45.000000	-36.009247	2069.084571	-831.589972	146.613588	-126.617615	1100.293824	99.344016	12.763881	1.687969	8.438512	-45.000000	-36.240287	45.000000	-44.999993	-2058.896152	267.791159	139.976526	145.397639	2531.058742	15.749052	2.865271	-19.355753	
11.4500	39.293283	10.538674	13.108163	-243.114153	848.471034	7.900088	12.422988	38.377351	37.320950	45.000000	-35.863475	2069.113581	-831.586515	146.614698	-126.641117	1100.316360	99.350610	12.807784	1.653216	8.457840	-45.000000	-36.262191	45.000000	-44.999987	-2058.961543	267.802776	139.945095	145.638725	2531.067488	15.681687	2.883801	-19.366281	
11.4600	39.285801	10.537048	13.134477	-242.387573	848.239836	7.883313	12.387654	38.401762	37.331895	45.000000	-35.703761	2069.135980	-831.588479	146.622610	-126.694534	1100.334298	99.347553	12.844836	1.619224	8.484162	-45.000000	-36.284759	45.000000	-44.999977	-2059.020871	267.813386	139.892452	145.891370	2531.070331	15.570663	2.915041	-19.381101	
11.4700	39.286830	10.540389	13.156802	-241.608942	848.003582	7.856620	12.346617	38.412171	37.357058	45.000000	-35.539412	2069.153733	-831.588007	146.641733	-126.765347	1100.353503	99.327396	12.899154	1.582455	8.511050	-45.000000	-36.306189	45.000000	-44.999960	-2059.096858	267.827470	139.837633	146.163949	2531.072576	15.409569	2.957202	-19.400246	
11.4800	39.296594	10.540832	13.166315	-240.769159	847.757340	7.822125	12.302104	38.441672	37.400903	45.000000	-35.361955	2069.157801	-831.596896	146.665528	-126.871317	1100.369162	99.284953	12.937792	1.545086	8.540910	-45.000000	-36.331748	45.000000	-44.999928	-2059.169421	267.840632	139.752139	146.446809	2531.066095	15.194774	3.017416	-19.423697	
11.4900	39.308980	10.549389	13.174744	-239.860199	847.495773	7.782143	12.254079	38.462701	37.445317	45.000000	-35.178850	2069.165881	-831.603352	146.692104	-126.995737	1100.387666	99.219116	12.985705	1.503740	8.572030	-45.000000	-36.360220	45.000000	-44.999870	-2059.256439	267.855203	139.663461	146.749562	2531.058963	14.922090	3.091060	-19.451020	
11.5000	39.323437	10.558028	13.188408	-238.875236	847.213178	7.738808	12.202899	38.503038	37.511526	45.000000	-34.996047	2069.173498	-831.612732	146.723570	-127.142174	1100.404104	99.130293	13.030123	1.458757	8.606520	-45.000000	-36.379215	45.000000	-44.999768	-2059.343542	267.871491	139.559032	147.073189	2531.045143	14.587157	3.178058	-19.479635	
